<svg xmlns="http://www.w3.org/2000/svg" viewBox="0 0 1200 600"><defs><linearGradient id="g" x1="0" x2="1"><stop stop-color="#888" stop-opacity=".02"/><stop offset=".5" stop-color="#888" stop-opacity=".12"/><stop offset="1" stop-color="#888" stop-opacity=".02"/></linearGradient></defs><path d="M0 0H1200" stroke="url(#g)" stroke-width="1"/><path d="M0 12H1200" stroke="url(#g)" stroke-width="1"/><path d="M0 24H1200" stroke="url(#g)" stroke-width="1"/><path d="M0 36H1200" stroke="url(#g)" stroke-width="1"/><path d="M0 48H1200" stroke="url(#g)" stroke-width="1"/><path d="M0 60H1200" stroke="url(#g)" stroke-width="1"/><path d="M0 72H1200" stroke="url(#g)" stroke-width="1"/><path d="M0 84H1200" stroke="url(#g)" stroke-width="1"/><path d="M0 96H1200" stroke="url(#g)" stroke-width="1"/><path d="M0 108H1200" stroke="url(#g)" stroke-width="1"/><path d="M0 120H1200" stroke="url(#g)" stroke-width="1"/><path d="M0 132H1200" stroke="url(#g)" stroke-width="1"/><path d="M0 144H1200" stroke="url(#g)" stroke-width="1"/><path d="M0 156H1200" stroke="url(#g)" stroke-width="1"/><path d="M0 168H1200" stroke="url(#g)" stroke-width="1"/><path d="M0 180H1200" stroke="url(#g)" stroke-width="1"/><path d="M0 192H1200" stroke="url(#g)" stroke-width="1"/><path d="M0 204H1200" stroke="url(#g)" stroke-width="1"/><path d="M0 216H1200" stroke="url(#g)" stroke-width="1"/><path d="M0 228H1200" stroke="url(#g)" stroke-width="1"/><path d="M0 240H1200" stroke="url(#g)" stroke-width="1"/><path d="M0 252H1200" stroke="url(#g)" stroke-width="1"/><path d="M0 264H1200" stroke="url(#g)" stroke-width="1"/><path d="M0 276H1200" stroke="url(#g)" stroke-width="1"/><path d="M0 288H1200" stroke="url(#g)" stroke-width="1"/><path d="M0 300H1200" stroke="url(#g)" stroke-width="1"/><path d="M0 312H1200" stroke="url(#g)" stroke-width="1"/><path d="M0 324H1200" stroke="url(#g)" stroke-width="1"/><path d="M0 336H1200" stroke="url(#g)" stroke-width="1"/><path d="M0 348H1200" stroke="url(#g)" stroke-width="1"/><path d="M0 360H1200" stroke="url(#g)" stroke-width="1"/><path d="M0 372H1200" stroke="url(#g)" stroke-width="1"/><path d="M0 384H1200" stroke="url(#g)" stroke-width="1"/><path d="M0 396H1200" stroke="url(#g)" stroke-width="1"/><path d="M0 408H1200" stroke="url(#g)" stroke-width="1"/><path d="M0 420H1200" stroke="url(#g)" stroke-width="1"/><path d="M0 432H1200" stroke="url(#g)" stroke-width="1"/><path d="M0 444H1200" stroke="url(#g)" stroke-width="1"/><path d="M0 456H1200" stroke="url(#g)" stroke-width="1"/><path d="M0 468H1200" stroke="url(#g)" stroke-width="1"/><path d="M0 480H1200" stroke="url(#g)" stroke-width="1"/><path d="M0 492H1200" stroke="url(#g)" stroke-width="1"/><path d="M0 504H1200" stroke="url(#g)" stroke-width="1"/><path d="M0 516H1200" stroke="url(#g)" stroke-width="1"/><path d="M0 528H1200" stroke="url(#g)" stroke-width="1"/><path d="M0 540H1200" stroke="url(#g)" stroke-width="1"/><path d="M0 552H1200" stroke="url(#g)" stroke-width="1"/><path d="M0 564H1200" stroke="url(#g)" stroke-width="1"/><path d="M0 576H1200" stroke="url(#g)" stroke-width="1"/><path d="M0 588H1200" stroke="url(#g)" stroke-width="1"/><path d="M0 0V600" stroke="url(#g)" stroke-width="1"/><path d="M12 0V600" stroke="url(#g)" stroke-width="1"/><path d="M24 0V600" stroke="url(#g)" stroke-width="1"/><path d="M36 0V600" stroke="url(#g)" stroke-width="1"/><path d="M48 0V600" stroke="url(#g)" stroke-width="1"/><path d="M60 0V600" stroke="url(#g)" stroke-width="1"/><path d="M72 0V600" stroke="url(#g)" stroke-width="1"/><path d="M84 0V600" stroke="url(#g)" stroke-width="1"/><path d="M96 0V600" stroke="url(#g)" stroke-width="1"/><path d="M108 0V600" stroke="url(#g)" stroke-width="1"/><path d="M120 0V600" stroke="url(#g)" stroke-width="1"/><path d="M132 0V600" stroke="url(#g)" stroke-width="1"/><path d="M144 0V600" stroke="url(#g)" stroke-width="1"/><path d="M156 0V600" stroke="url(#g)" stroke-width="1"/><path d="M168 0V600" stroke="url(#g)" stroke-width="1"/><path d="M180 0V600" stroke="url(#g)" stroke-width="1"/><path d="M192 0V600" stroke="url(#g)" stroke-width="1"/><path d="M204 0V600" stroke="url(#g)" stroke-width="1"/><path d="M216 0V600" stroke="url(#g)" stroke-width="1"/><path d="M228 0V600" stroke="url(#g)" stroke-width="1"/><path d="M240 0V600" stroke="url(#g)" stroke-width="1"/><path d="M252 0V600" stroke="url(#g)" stroke-width="1"/><path d="M264 0V600" stroke="url(#g)" stroke-width="1"/><path d="M276 0V600" stroke="url(#g)" stroke-width="1"/><path d="M288 0V600" stroke="url(#g)" stroke-width="1"/><path d="M300 0V600" stroke="url(#g)" stroke-width="1"/><path d="M312 0V600" stroke="url(#g)" stroke-width="1"/><path d="M324 0V600" stroke="url(#g)" stroke-width="1"/><path d="M336 0V600" stroke="url(#g)" stroke-width="1"/><path d="M348 0V600" stroke="url(#g)" stroke-width="1"/><path d="M360 0V600" stroke="url(#g)" stroke-width="1"/><path d="M372 0V600" stroke="url(#g)" stroke-width="1"/><path d="M384 0V600" stroke="url(#g)" stroke-width="1"/><path d="M396 0V600" stroke="url(#g)" stroke-width="1"/><path d="M408 0V600" stroke="url(#g)" stroke-width="1"/><path d="M420 0V600" stroke="url(#g)" stroke-width="1"/><path d="M432 0V600" stroke="url(#g)" stroke-width="1"/><path d="M444 0V600" stroke="url(#g)" stroke-width="1"/><path d="M456 0V600" stroke="url(#g)" stroke-width="1"/><path d="M468 0V600" stroke="url(#g)" stroke-width="1"/><path d="M480 0V600" stroke="url(#g)" stroke-width="1"/><path d="M492 0V600" stroke="url(#g)" stroke-width="1"/><path d="M504 0V600" stroke="url(#g)" stroke-width="1"/><path d="M516 0V600" stroke="url(#g)" stroke-width="1"/><path d="M528 0V600" stroke="url(#g)" stroke-width="1"/><path d="M540 0V600" stroke="url(#g)" stroke-width="1"/><path d="M552 0V600" stroke="url(#g)" stroke-width="1"/><path d="M564 0V600" stroke="url(#g)" stroke-width="1"/><path d="M576 0V600" stroke="url(#g)" stroke-width="1"/><path d="M588 0V600" stroke="url(#g)" stroke-width="1"/><path d="M600 0V600" stroke="url(#g)" stroke-width="1"/><path d="M612 0V600" stroke="url(#g)" stroke-width="1"/><path d="M624 0V600" stroke="url(#g)" stroke-width="1"/><path d="M636 0V600" stroke="url(#g)" stroke-width="1"/><path d="M648 0V600" stroke="url(#g)" stroke-width="1"/><path d="M660 0V600" stroke="url(#g)" stroke-width="1"/><path d="M672 0V600" stroke="url(#g)" stroke-width="1"/><path d="M684 0V600" stroke="url(#g)" stroke-width="1"/><path d="M696 0V600" stroke="url(#g)" stroke-width="1"/><path d="M708 0V600" stroke="url(#g)" stroke-width="1"/><path d="M720 0V600" stroke="url(#g)" stroke-width="1"/><path d="M732 0V600" stroke="url(#g)" stroke-width="1"/><path d="M744 0V600" stroke="url(#g)" stroke-width="1"/><path d="M756 0V600" stroke="url(#g)" stroke-width="1"/><path d="M768 0V600" stroke="url(#g)" stroke-width="1"/><path d="M780 0V600" stroke="url(#g)" stroke-width="1"/><path d="M792 0V600" stroke="url(#g)" stroke-width="1"/><path d="M804 0V600" stroke="url(#g)" stroke-width="1"/><path d="M816 0V600" stroke="url(#g)" stroke-width="1"/><path d="M828 0V600" stroke="url(#g)" stroke-width="1"/><path d="M840 0V600" stroke="url(#g)" stroke-width="1"/><path d="M852 0V600" stroke="url(#g)" stroke-width="1"/><path d="M864 0V600" stroke="url(#g)" stroke-width="1"/><path d="M876 0V600" stroke="url(#g)" stroke-width="1"/><path d="M888 0V600" stroke="url(#g)" stroke-width="1"/><path d="M900 0V600" stroke="url(#g)" stroke-width="1"/><path d="M912 0V600" stroke="url(#g)" stroke-width="1"/><path d="M924 0V600" stroke="url(#g)" stroke-width="1"/><path d="M936 0V600" stroke="url(#g)" stroke-width="1"/><path d="M948 0V600" stroke="url(#g)" stroke-width="1"/><path d="M960 0V600" stroke="url(#g)" stroke-width="1"/><path d="M972 0V600" stroke="url(#g)" stroke-width="1"/><path d="M984 0V600" stroke="url(#g)" stroke-width="1"/><path d="M996 0V600" stroke="url(#g)" stroke-width="1"/><path d="M1008 0V600" stroke="url(#g)" stroke-width="1"/><path d="M1020 0V600" stroke="url(#g)" stroke-width="1"/><path d="M1032 0V600" stroke="url(#g)" stroke-width="1"/><path d="M1044 0V600" stroke="url(#g)" stroke-width="1"/><path d="M1056 0V600" stroke="url(#g)" stroke-width="1"/><path d="M1068 0V600" stroke="url(#g)" stroke-width="1"/><path d="M1080 0V600" stroke="url(#g)" stroke-width="1"/><path d="M1092 0V600" stroke="url(#g)" stroke-width="1"/><path d="M1104 0V600" stroke="url(#g)" stroke-width="1"/><path d="M1116 0V600" stroke="url(#g)" stroke-width="1"/><path d="M1128 0V600" stroke="url(#g)" stroke-width="1"/><path d="M1140 0V600" stroke="url(#g)" stroke-width="1"/><path d="M1152 0V600" stroke="url(#g)" stroke-width="1"/><path d="M1164 0V600" stroke="url(#g)" stroke-width="1"/><path d="M1176 0V600" stroke="url(#g)" stroke-width="1"/><path d="M1188 0V600" stroke="url(#g)" stroke-width="1"/></svg>